<?xml version="1.0" encoding="UTF-8"?>
<svg xmlns="http://www.w3.org/2000/svg" width="32" height="32" viewBox="0 0 554 549"><path d="m13 1c17.4 0 34.7 0 52.5.4.5 3.5.5 6.7.5 9.8.5.1.9.2 1.4.4-3 2.7-5.9 5.4-8.9 8.1.1.4.2.8.3 1.2 1.9-.8 3.8-1.6 5.7-2.4 3.1-1.3 6.8-4.3 9.3-3.5 5.2 1.5 9.8 4.9 14.6 7.7 4 2.3 4.7 6.3 2.9 9.9-1.4 3-.6 4.2 1.5 5.6-.7.4-1.3.6-2.1.9-5.1 2.7-9.9 5.3-15 7.8-3.4-2.6-6.1-1.6-8.6.7-1.7 1.6-2.4 3.6-.3 5.6-1.4.7-2.6 1.3-4.2 1.8-2.6.2-5.5-.8-5.6 3.2 0 .2 0 .7-.3.9-2.3 2-2.3 3.6.6 5.2.4 5.8.6 11.2.8 17.1 0 3.5 0 6.5-.4 9.6-1.8 1.6-3 4-4.7 4.5-3.4 1-3.4 3.1-4.1 5.8-1 3.8-2.2 8.8-5 10.7-4.7 3.3-6.2 7.3-6.9 12.3-.2 1.5-1.1 3.8-2.1 4.1-5.7 1.5-6.4 6.4-6.5 10.6-.1 7-7.4 6.9-9.9 11.3-.1.1-1.7-.4-2.4-.9-1-.7-1.9-1.7-2.8-3.1 0-6.1 0-11.8.2-17.8.4-7.8.7-15.3.6-22.7-.2-14.8-.5-29.5-.9-44.3-.2-5.8-.7-11.5 6.5-13.8.5-.2.7-1.2 1.3-2.2-7.7 2.6-7.8 2.6-7.7-5.4.1-4.1.9-8.3.8-12.4-.1-8.9-.6-17.9-.9-26.8z" fill="#0B1122"/><path d="m288 550c-3.4 0-6.7 0-10.9-.1-9.9-1-19-1.9-28.6-3-1.5-.2-2.7-.3-4-.6-.4.1-.7.3-1 .1-.6-.3-1-.4-1.8-.5-1.1-.1-1.9-.2-3.1-.4-7.7-1.8-15.1-3.4-22.7-5.4-1.4-.6-2.5-.8-3.8-.9-1.2-.2-2.2-.5-3.2-1.1-1.2-1.3-2.6-2.1-3.6-3.2-1.3-1.4-2.2-3-3.3-4.5.2-.7.5-1.5.7-2.2-3.9 1.5-7.9 3-12.1 4.4-.7-.2-1-.4-1.6-1-1.6-.7-3-1.1-4.7-1.5-.9-.3-1.6-.6-2.2-1.3-.7-1.5-1.5-2.6-2.2-3.7-.9.7-1.8 1.4-3.1 2.1-1.5-.6-2.6-1.1-3.8-2.1-.3-4.2-2.9-1.6-4.6-1.9-.1.1-.3 0-.2-.4.1-2.1.6-4 .2-5.6-.2-.8-2.2-2.1-2.8-1.8-2.1 1-3.9 2.5-6.1 3.7-1-.5-1.6-.9-2.1-1.6 5.3-3.2 5.2-3.2 1.5-8.3-.6-.8-.4-2.3-.5-3.5 4.1-.1 6.9-2.7 10.1-4.7.2-.1.8.4 1.2.7-.5.9-.9 1.6-1.8 3.2 7.5-1 13.7-.3 17.8 5-4.2 3.7-7.8 7-11.5 10.3.3.4.6.8.9 1.2 1.8-.3 4-1.4 5.4-.8 4.8 2.2 5.5.3 5.1-4-.4-3.9 2.6-6.1 6.5-5.6 2.2.3 4.5-.2 7-.3.1 0 .3.2.4.5.8.3 1.4.2 2.5.2.7.2 1.1.5 1.5 1 .8 4.1 3 5 6.8 5.3 4.7.4 10.6.8 13.4 3.7 3.7 3.8 6.8 3.6 11 3 3.1-.4 6.2-.3 9.3-.6 1.2-.1 2.4-.8 3.9-1.2 1.1.2 1.8.3 2.6.7-.7 1-1.6 1.7-2.4 2.5.1.3.2.6.3.9 3.7-.9 7.3-1.7 11.4-2.7 14.8-.2 29.2-.3 43.9-.3.8-.1 1.2-.2 2.1-.3 8.1-1.1 15.9-2.3 24-3.5 1.1-.2 1.9-.4 3-.5 2.1-.4 3.9-.9 6-1.4 1.5-.3 2.6-.6 4.1-1 3.1-.8 5.7-1.7 8.8-2.5 9.8-3.3 19.2-6.7 28.8-9.8 1.4.6 2.5.9 3.9 1.2-.5 1.6-.9 3-1.7 5.3 2.2-.7 4.1-.7 4.9-1.6.6-.8.1-2.7-.2-4.1-.4-1.2-1.2-2.3-1.7-3.6 1.2-.6 2.2-.9 3.5-1.2 1 .8 1.6 1.5 2 2.3-.5.4-.8.7-1.1 1 .1.1.2.2.3.3.3-.4.7-.9 1.4-1.3 3.2-1.2 5.6 1.9 9.2-.2 5.2-3 8-7.6 11.9-11.4 3.7-3.7 9.2-5.7 14-8.2.6-.3 1.6.1 2.4.3 2.9.8 5.1.4 6.4-2.9.3-.9 2.4-1.2 3.7-1.5 1.7-.3 3.4-.3 5.1-.4-.2-1.5-.6-3-.5-4.4.1-1.9.7-3.8 1.2-6.2 1.5 1.6 2.4 2.6 3.5 3.8 1.8-2.8 5.9-4.6 1.4-8.2.8-.3 1.1-.6 1.4-.6 4.5-.1 9 .3 13.5-.3 4.5-.6 8.4-.4 11.4 3.4-.7.8-1.3 1.3-2.3 1.7-3.4 0-6.4 0-9.5 0-.1.5-.1.9-.2 1.4-.4-.3-.9-.5-1.1-.9-1.8-2.3-3.8-3.4-6.1-.7-1.8 2.1-4.2 4.2-.5 6.9 1 .8 1.1 2.8 1.9 4.8-2.3-.5-3.6-.8-5.5-1.3-1 3-1.8 5.8-3 8.4-.4.8-2.1.8-3.2 1.2-1.8-6.4-5.7-2.2-9.5-2.4.8 4.6 1.5 8.6 2 12.8-.7.6-1.2 1-1.7.9-.5-7-5-1.6-7.6-2.9 0-1.3.5-2.8-.1-3.8-.8-1.3-2.3-2.2-3.6-3.3-.5 1.6-1.9 3.9-1.4 4.6 1.7 2 4.2 3.3 6.4 4.8 1.3.9 2.8 1.6 4 2.6-1 .7-1.9 1.2-3 1.8-.5.2-.7.4-1.1 1-2 1.4-3.8 2.5-5.8 3.3-3-.9-2.3-3.5-2.9-5.4-1.9.9-3.8 1.8-5.8 2.5-.4.1-.9-.3-1.4-.3-5.4-.7-7.6 1.3-6.6 6.7.6 3.3-.2 4.3-3.5 3.9-.7-.1-1.3.1-2.2.3-1.4 2-2.6 4-4.1 5.9-3.2.7-6.1 1.3-8.9 2 .1.3.2.6.2.9-1.4-.5-2.8-1.1-4.2-1.6-.2.3-.4.7-.5 1 .9 1.2 1.8 2.4 2.4 3.6-4.1 1.8-7.7 3.7-11.5 5.2-26.8 10.4-54.7 15.2-83.3 16.6-1.6.1-3.2.9-4.8 1.3m-78.3-19.8c.5 0 1.1 0 1.6 0 0 0 0-.3 0-.5-.5 0-1.1 0-1.6.5m224.5-42.9c0-.5 0-1.1 0-1.6-1.5-.1-1.8-.1-2-.1-.1.5-.1 1.1.5 1.6m-222.3 32.3.3-.2s-.3 0-.3.2m-3.3 14.3s-.3.1-.3.1.3.1.3-.1m-24.7-10.5.1.3s.1-.3-.1-.3m6-11 .1.3s.1-.3-.1-.3" fill="#102555"/><path d="m464 1c26 0 52 0 78.5.5.5 8.3.5 16.1.5 23.9 0 7.4.1 14.9 0 22.3-.1 6.4-.6 12.9-1.3 19.3-.8 0-1.2 0-1.7-.4-.4-.9-.7-1.6-1.2-1.9-4.1-2.3-8.1-4.8-12.4-6.8-1.8-.8-5.1-1.5-6.1-.5-4 3.8-11.1 2.8-13.5 9.1-1.4 3.7-3.7 7-5.6 10.4-.6 1.1-1.6 2.1-2.1 2.8-3.3-4.3-6.1-8.1-9.1-11.7-.7-.9-2.5-1.9-3.2-1.6-6.1 3.1-6.7-2.2-8.7-5.8.6-1.6 1.1-3.1 2-4 2.6-2.8 2.5-5.8-.8-7.6-1.5-.8-3.4-.7-5.2-1.4.7-2.2 1.5-3.9 2-5.7.7-2.6 1.9-5.4 1.4-7.7-.3-1.2-4-1.8-6.2-2.2-3-.5-4.4 1.1-5.3 3.9-.5 1.5-3.2 3.7-3.7 3.5-2.2-1.1-5.1-2.9-5.5-4.9-.3-1.5 2.8-3.7 4.4-5.5.5-.5 1.4-.7 1.9-.9-2-1.3-3.9-2.5-5.7-3.7 2.3-2 4.5-3.9 6.8-5.9v-17.5z" fill="#0B1021"/><path d="m107 550c-26.7 0-53.4 0-80.6-.4-.8-2.7-1.4-5-1.3-7.3.2-11.8.6-23.5 1.3-35.4 1.3-1.1 3.2-2.1 3.2-3.3.5-7.1 7.2-8.2 11.2-11.7 3.8-3.3 9.2-4.8 13.9-7.1 5.1-2.5 18 1.8 18.8 7.2.8 5.6 3.2 8.2 8.3 9.6 1.1.3 2 1.6 3 2.6 3.8 3.9 6.3 9.6 13.1 9.5.5 0 1.1.7 1.5 1.2 4.9 4.6 10.9 4.9 16.7 3.3 3.6-1 4.9 0 5.8 3.1-3.7 2.5-7.3 4.5-10.5 6.9-1.4 1-2.9 2.9-3.1 4.5-.7 5.7-.8 11.5-1.2 17.3z" fill="#0C1125"/><path d="m521 550c-33 0-66 0-99.5-.4 1.8-3.5 3.6-7 6.3-9.7 5.2-5.3 12.4-9.3 15.8-15.5 4.3-8 9-14.6 17-18.9 5.3-2.8 8.4-1.4 8.4 4.5 0 8.4 7.4 11.8 11.5 17.4.2.3.9.4 1.4.4 6.1.7 12.5 3.3 17.8-2.5.4-.5 1.6-.3 2.4-.5 0 0 0 0 .1.3 1 3.7 3.4 3.5 6.3 2.7 3.1 1.7 5.9 3.3 8.5 5.2-.1 1.8-.2 3.5.2 4.9 1.2 4 2.6 7.9 4 11.8z" fill="#0C1226"/><path d="m478 61c2 3.2 2.6 8.6 8.7 5.4.6-.3 2.5.7 3.2 1.6 3 3.6 5.8 7.4 9.1 11.7.6-.7 1.5-1.7 2.1-2.8 2-3.4 4.2-6.7 5.6-10.4 2.4-6.3 9.5-5.3 13.5-9.1 1-1 4.3-.3 6.1.5 4.3 1.9 8.3 4.4 12.4 6.8.5.3.7 1 1 2.2-1 1.1-1.9 1.6-3.1 2.2-1.1.3-1.9.7-3 .9-5.4-2.5-10.6-3.9-16-1.1-1.6.8-4.3 1.9-4.3 2.9 0 2.4 1.2 4.9 2 7.3.4 1.1 1.3 2.2 1.2 3.3-.2 5.6.4 6.3 6.4 7 .3 12.5.6 24.5.5 36.5-2.6-1.1-6.5-1.8-6.8-3.4-1.9-7.7-5.8-13.7-12.8-17.9-1.4-2.1-2.7-3.9-3.8-6 1.5-3.2.4-4.9-2.1-6.8-4-3.2-7.4-7.2-11.1-11.2-1.5-2.3-2.7-5-4.7-6.1-3.7-2.1-7.9-3.4-11.9-5.1.4-.3.8-.6 1.2-1-1.6-3-2.7-6.5-5-8.9-3.5-3.7-9.8-4.3-11.7-10 0-.4-1.2-1-2.3-1.4z" fill="#14285D"/></svg>
